<svg xmlns="http://www.w3.org/2000/svg" width="750" height="471" viewBox="0 0 750 471"><rect fill="#000" width="750" height="471" rx="40"/><path d="M434.008 235.5c0 99.142-80.37 179.504-179.508 179.504S75 334.642 75 235.5c0-99.133 80.362-179.504 179.5-179.504s179.508 80.37 179.508 179.504" fill="#D9222A"/><path d="M495.492 55.996c-46.38 0-88.642 17.596-120.5 46.466a182.43 182.43 0 0 0-18.125 18.996h36.266a181.8 181.8 0 0 1 13.684 19.013h-63.634a178.716 178.716 0 0 0-10.341 19.008h84.312a179.19 179.19 0 0 1 7.6 19.004h-99.512a177.294 177.294 0 0 0-5.217 19.009h109.942a180.428 180.428 0 0 1 4.041 38.008c0 19.933-3.254 39.113-9.254 57.02h-99.512a177.651 177.651 0 0 0 7.595 19.01h84.317a179.97 179.97 0 0 1-10.346 19.012h-63.625a181.65 181.65 0 0 0 13.684 18.996h36.258a179.297 179.297 0 0 1-18.13 19.012c31.86 28.867 74.118 46.454 120.497 46.454C594.63 415.004 675 334.642 675 235.5c0-99.13-80.37-179.504-179.508-179.504" fill="#EE9F2D"/><path d="M651.075 335.558a5.8 5.8 0 0 1 5.796-5.8 5.8 5.8 0 1 1 0 11.6 5.798 5.798 0 0 1-5.796-5.8zm5.796 4.41a4.41 4.41 0 0 0 4.408-4.409 4.404 4.404 0 0 0-4.408-4.404 4.398 4.398 0 0 0-4.404 4.404 4.404 4.404 0 0 0 4.404 4.409zm-.783-1.86H654.9v-5.095h2.15c.45 0 .908 0 1.304.254.413.28.646.77.646 1.28 0 .57-.337 1.104-.883 1.312l.937 2.25h-1.316l-.78-2.016h-.87v2.016zm0-2.89h.658c.246 0 .504.02.725-.1.196-.125.296-.36.296-.584 0-.195-.12-.42-.288-.516-.208-.13-.537-.1-.758-.1h-.633v1.3zm-443.5-80.063l-4.35-.3c-11.045 0-16.637 3.788-16.637 11.267 0 4.612 2.73 7.546 6.987 7.546 7.938 0 13.66-7.56 14-18.513zm14.17 32.996h-16.146l.37-7.675c-4.925 6.067-11.496 8.95-20.425 8.95-10.562 0-17.804-8.25-17.804-20.23 0-18.024 12.596-28.54 34.217-28.54 2.208 0 5.04.2 7.94.57.605-2.442.763-3.487.763-4.8 0-4.908-3.396-6.738-12.5-6.738-9.533-.108-17.396 2.27-20.625 3.334l2.7-16.658c9.712-2.846 16.117-3.917 23.325-3.917 16.733 0 25.596 7.512 25.58 21.712.032 3.805-.597 8.5-1.58 14.67l-5.817 39.32zm-62.158 0h-19.488l11.163-69.996-24.925 69.996h-13.28l-1.64-69.596-11.734 69.596H86.454l15.238-91.054h28.02l1.7 50.967 17.092-50.967h31.167L164.6 288.15m354.975-32.996c-2.037-.237-2.942-.3-4.342-.3-11.04 0-16.633 3.788-16.633 11.267 0 4.612 2.725 7.546 6.983 7.546 7.938 0 13.663-7.56 13.992-18.513zm14.183 32.996h-16.145l.366-7.675c-4.925 6.067-11.5 8.95-20.42 8.95-10.567 0-17.8-8.25-17.8-20.23 0-18.024 12.587-28.54 34.212-28.54 2.208 0 5.037.2 7.933.57.604-2.442.763-3.487.763-4.8 0-4.908-3.392-6.738-12.496-6.738-9.533-.108-17.388 2.27-20.63 3.334l2.71-16.658c9.713-2.846 16.113-3.917 23.313-3.917 16.74 0 25.604 7.512 25.587 21.712.033 3.805-.596 8.5-1.58 14.67l-5.812 39.32zm-220.39-1.125c-5.334 1.68-9.492 2.4-14 2.4-9.963 0-15.4-5.725-15.4-16.267-.142-3.27 1.433-11.88 2.67-19.737l8.45-50.53h19.37l-2.262 11.21h11.7l-2.642 17.796h-11.742l-5.49 33.95c0 3.817 2.037 5.483 6.67 5.483 2.22 0 3.942-.225 5.255-.7l-2.58 16.396m59.392-.6c-6.654 2.033-13.075 3.017-19.88 3-21.683-.02-32.987-11.346-32.987-33.033 0-25.313 14.38-43.946 33.9-43.946 15.97 0 26.17 10.433 26.17 26.796 0 5.43-.7 10.73-2.387 18.212H339c-1.304 10.742 5.57 15.217 16.837 15.217 6.934 0 13.188-1.43 20.142-4.663l-3.22 18.417zm-10.887-43.9c.108-1.542 2.054-13.217-9.013-13.217-6.17 0-10.583 4.704-12.38 13.217h21.392zm-123.425-5.017c0 9.367 4.54 15.825 14.84 20.675 7.892 3.71 9.113 4.81 9.113 8.17 0 4.617-3.48 6.7-11.192 6.7-5.812 0-11.22-.908-17.458-2.92l-2.68 17.1c4.43.966 8.38 1.862 20.28 2.19 20.562 0 30.058-7.83 30.058-24.75 0-10.175-3.975-16.146-13.737-20.633-8.17-3.75-9.11-4.588-9.11-8.046 0-4.004 3.238-6.046 9.538-6.046 3.825 0 9.05.408 14 1.113l2.775-17.175c-5.046-.8-12.696-1.442-17.15-1.442-21.8 0-29.346 11.387-29.28 25.062m229.088-23.116c5.413 0 10.46 1.42 17.413 4.92l3.187-19.762c-2.854-1.12-12.904-7.7-21.416-7.7-13.042 0-24.067 6.47-31.82 17.15-11.31-3.746-15.96 3.825-21.66 11.367l-5.062 1.18c.383-2.483.73-4.95.613-7.446h-17.896c-2.446 22.917-6.78 46.13-10.17 69.075l-.884 4.975h19.496l6.12-43.842 7.342-4.083c1.096-4.08 4.53-5.458 11.416-5.292a82.966 82.966 0 0 0-1.383 15.184c0 24.225 13.07 39.308 34.05 39.308 5.404 0 10.042-.712 17.22-2.658l3.43-20.76c-6.46 3.18-11.76 4.675-16.56 4.675-11.328 0-18.183-8.362-18.183-22.183 0-20.05 10.196-34.108 24.746-34.108" fill="#000"/><path fill="#FFF" d="M170.208 282.742h-19.49l11.17-69.988-24.925 69.988H123.68l-1.642-69.588-11.733 69.588H92.062L107.3 191.7h28.02l.788 56.363 18.904-56.363h30.267l-15.07 91.042"/><path d="M632.52 197.096l-4.32 26.308c-5.33-7.012-11.054-12.087-18.612-12.087-9.834 0-18.784 7.454-24.642 18.425-8.158-1.692-16.596-4.563-16.596-4.563l-.004.067c.658-6.133.92-9.875.862-11.146h-17.9c-2.437 22.917-6.77 46.13-10.158 69.075l-.892 4.975h19.492l6.133-42.55c6.66-6.017 9.992-11.267 16.72-10.917-2.98 7.205-4.725 15.505-4.725 24.017 0 18.513 9.367 30.725 23.534 30.725 7.14 0 12.62-2.462 17.966-8.17l-.912 6.883H636.9l14.842-91.042H632.52zm-24.37 73.942c-6.633 0-9.983-4.91-9.983-14.596 0-14.554 6.27-24.875 15.112-24.875 6.696 0 10.32 5.104 10.32 14.508 0 14.68-6.37 24.963-15.45 24.963z" fill="#000"/><path d="M218.192 249.758l-4.346-.3c-11.046 0-16.634 3.788-16.634 11.267 0 4.604 2.73 7.546 6.98 7.546 7.945 0 13.666-7.558 14-18.513zm14.18 32.984h-16.146l.367-7.663c-4.92 6.054-11.5 8.95-20.42 8.95-10.567 0-17.804-8.25-17.804-20.23 0-18.033 12.59-28.542 34.216-28.542 2.21 0 5.042.2 7.938.57.604-2.442.762-3.487.762-4.808 0-4.908-3.39-6.73-12.496-6.73-9.537-.108-17.395 2.272-20.63 3.322l2.7-16.638c9.71-2.858 16.12-3.93 23.32-3.93 16.738 0 25.604 7.518 25.588 21.705.03 3.82-.605 8.512-1.584 14.675l-5.812 39.317zm261.375-88.592l-3.192 19.767c-6.95-3.496-12-4.92-17.408-4.92-14.55 0-24.75 14.058-24.75 34.108 0 13.82 6.858 22.18 18.183 22.18 4.8 0 10.096-1.492 16.554-4.676l-3.42 20.75c-7.184 1.96-11.817 2.67-17.226 2.67-20.975 0-34.05-15.083-34.05-39.308 0-32.55 18.06-55.3 43.888-55.3 8.508 0 18.563 3.608 21.42 4.73m31.443 55.608c-2.042-.237-2.942-.3-4.346-.3-11.042 0-16.634 3.788-16.634 11.267 0 4.604 2.73 7.546 6.984 7.546 7.937 0 13.662-7.558 13.996-18.513zm14.18 32.984h-16.15l.37-7.663c-4.924 6.054-11.5 8.95-20.42 8.95-10.563 0-17.804-8.25-17.804-20.23 0-18.033 12.595-28.542 34.212-28.542 2.213 0 5.042.2 7.942.57.6-2.442.762-3.487.762-4.808 0-4.908-3.39-6.73-12.496-6.73-9.533-.108-17.395 2.272-20.63 3.322l2.704-16.638c9.71-2.858 16.117-3.93 23.317-3.93 16.742 0 25.604 7.518 25.583 21.705.034 3.82-.595 8.512-1.58 14.675l-5.812 39.317zm-220.392-1.122c-5.338 1.68-9.496 2.4-14 2.4-9.963 0-15.4-5.726-15.4-16.267-.138-3.28 1.437-11.88 2.675-19.738l8.446-50.533h19.366l-2.258 11.212h9.942l-2.646 17.788h-9.975l-5.496 33.95c0 3.83 2.042 5.483 6.67 5.483 2.22 0 3.937-.217 5.254-.692l-2.58 16.388m59.392-.59c-6.65 2.033-13.08 3.012-19.88 3-21.683-.022-32.987-11.347-32.987-33.034 0-25.32 14.38-43.95 33.9-43.95 15.97 0 26.17 10.43 26.17 26.8 0 5.433-.7 10.733-2.382 18.212h-38.575c-1.305 10.742 5.57 15.22 16.837 15.22 6.93 0 13.188-1.433 20.137-4.675l-3.22 18.425zm-10.892-43.913c.117-1.538 2.058-13.217-9.013-13.217-6.166 0-10.58 4.717-12.375 13.217h21.388zm-123.42-5.004c0 9.366 4.542 15.816 14.842 20.675 7.89 3.708 9.112 4.812 9.112 8.17 0 4.617-3.483 6.7-11.187 6.7-5.817 0-11.225-.908-17.467-2.92l-2.67 17.1c4.42.966 8.374 1.85 20.274 2.19 20.567 0 30.06-7.83 30.06-24.746 0-10.18-3.97-16.15-13.738-20.637-8.167-3.758-9.112-4.583-9.112-8.046 0-4 3.245-6.058 9.54-6.058 3.82 0 9.046.42 14.004 1.125l2.77-17.18c-5.04-.8-12.69-1.44-17.146-1.44-21.804 0-29.345 11.38-29.283 25.067m398.454 50.63H624.07l.917-6.892c-5.346 5.717-10.825 8.18-17.967 8.18-14.167 0-23.53-12.213-23.53-30.726 0-24.63 14.522-45.392 31.71-45.392 7.558 0 13.28 3.088 18.604 10.096l4.325-26.308h19.22l-14.842 91.042zm-28.745-17.11c9.075 0 15.45-10.283 15.45-24.954 0-9.404-3.63-14.508-10.325-14.508-8.838 0-15.117 10.317-15.117 24.875 0 9.687 3.358 14.587 9.992 14.587zm-56.843-56.93c-2.44 22.917-6.774 46.13-10.162 69.063l-.89 4.975h19.49c6.97-45.275 8.66-54.117 19.588-53.01 1.742-9.266 4.983-17.383 7.4-21.48-8.163-1.7-12.72 2.913-18.688 11.675.47-3.787 1.334-7.466 1.163-11.225h-17.9m-160.42 0c-2.446 22.917-6.78 46.13-10.167 69.063l-.887 4.975h19.5c6.962-45.275 8.646-54.117 19.57-53.01 1.75-9.266 4.992-17.383 7.4-21.48-8.154-1.7-12.716 2.913-18.678 11.675.47-3.787 1.325-7.466 1.162-11.225h-17.9m254.567 68.242c0-3.213 2.596-5.8 5.796-5.8a5.79 5.79 0 0 1 5.795 5.8 5.797 5.797 0 0 1-5.795 5.796 5.8 5.8 0 0 1-5.796-5.796zm5.796 4.404a4.403 4.403 0 0 0 4.404-4.404 4.404 4.404 0 0 0-4.404-4.408 4.41 4.41 0 0 0-4.409 4.408 4.41 4.41 0 0 0 4.409 4.404zm-.784-1.87h-1.187v-5.084h2.154c.446 0 .908.008 1.296.254.416.283.654.767.654 1.275 0 .575-.338 1.113-.888 1.317l.942 2.237h-1.32l-.78-2.008h-.87v2.008zm0-2.88h.654c.246 0 .513.017.73-.1.195-.125.295-.362.295-.587a.677.677 0 0 0-.287-.525c-.204-.117-.542-.084-.763-.084h-.63v1.296z" fill="#FFF"/></svg>
