<svg xmlns="http://www.w3.org/2000/svg" width="750" height="471" viewBox="0 0 750 471"><rect fill="#0E4595" width="750" height="471" rx="40"/><path fill="#FFF" d="M278.197 334.228l33.36-195.763h53.36l-33.385 195.763zm246.11-191.54c-10.572-3.966-27.137-8.222-47.823-8.222-52.725 0-89.865 26.55-90.18 64.603-.298 28.13 26.513 43.822 46.753 53.186 20.77 9.594 27.752 15.714 27.654 24.283-.132 13.12-16.587 19.116-31.923 19.116-21.357 0-32.703-2.966-50.226-10.276l-6.876-3.11-7.5 43.824c12.464 5.464 35.5 10.198 59.438 10.443 56.1 0 92.5-26.246 92.916-66.882.2-22.268-14.016-39.216-44.8-53.188-18.65-9.055-30.072-15.1-29.95-24.268 0-8.137 9.667-16.84 30.556-16.84 17.45-.27 30.09 3.535 39.937 7.5l4.78 2.26 7.234-42.43m137.307-4.222h-41.23c-12.774 0-22.332 3.487-27.942 16.234l-79.245 179.404h56.032l11.233-29.418 68.337.084 6.49 29.334h49.513l-43.188-195.638zm-65.418 126.407l21.26-54.723c-.316.522 4.38-11.334 7.075-18.684l3.606 16.88 12.352 56.528h-44.293zM232.903 138.465l-52.24 133.496-5.567-27.13c-9.725-31.273-40.025-65.155-73.898-82.118l47.766 171.203 56.456-.065 84.004-195.386h-56.52"/><path d="M131.92 138.465H45.88l-.68 4.073c66.938 16.204 111.23 55.363 129.618 102.414l-18.7-89.96c-3.23-12.395-12.597-16.094-24.186-16.526" fill="#F2AE14"/></svg>
