<svg xmlns="http://www.w3.org/2000/svg" width="750" height="471"><path d="M697.115 0H52.885C23.724 0 0 23.196 0 51.707v367.586C0 447.804 23.724 471 52.885 471h644.23C726.274 471 750 447.804 750 419.293V51.707C750 23.196 726.274 0 697.115 0z" fill="#6c1cd3"/><g fill="#fff"><path d="M91.24 374.35c-1.168-1.46-1.3-3.63-1.3-19.83v-18.2H59.363c-22.774 0-30.794-.23-31.464-.898-.643-.642-.9-5.42-.9-16.754 0-13.18.2-16.013 1.124-16.787.618-.513 1.124-1.33 1.124-1.817s1.18-2.027 2.622-3.424 2.622-2.855 2.622-3.24 1.18-1.813 2.622-3.172 2.622-2.76 2.622-3.114 1.18-1.893 2.622-3.42 2.622-3.048 2.622-3.378 1.18-1.743 2.622-3.14 2.622-2.905 2.622-3.35 1.195-1.938 2.655-3.314 2.48-2.677 2.268-2.9.783-1.46 2.214-2.77 2.602-2.8 2.602-3.287 1.18-1.94 2.622-3.206 2.622-2.625 2.622-3.022 1.177-1.962 2.616-3.48 2.618-3.055 2.622-3.418 1.186-1.772 2.628-3.132 2.622-2.76 2.622-3.114 1.18-1.893 2.622-3.42 2.622-3.048 2.622-3.378 1.18-1.743 2.622-3.14 2.622-2.932 2.622-3.4.843-1.504 1.873-2.277 1.873-1.82 1.873-2.326 1.18-2.1 2.622-3.54 2.622-2.93 2.622-3.306 1.348-2.033 2.997-3.68 2.997-3.305 2.997-3.685 1.18-1.833 2.622-3.23 2.622-2.817 2.622-3.155 1.18-1.76 2.622-3.16 2.622-2.83 2.622-3.176.843-1.54 1.873-2.65 1.873-2.304 1.873-2.653 1.18-1.777 2.622-3.174 2.622-2.955 2.622-3.462.78-1.536 1.734-2.286 2.378-2.375 3.165-3.6 2.1-2.843 2.894-3.573c.93-.844 1.203-1.587.747-2.042-.436-.436-19.325-.796-48.32-.92-43.4-.186-47.714-.315-48.86-1.46-1.1-1.1-1.257-3.3-1.257-17.438 0-14.6.134-16.325 1.358-17.638 1.292-1.386 2.72-1.466 29.404-1.653l28.046-.197.407-19.092.562-19.28c.085-.103 8.914-.187 19.62-.187h19.465l.4 38.557 29.15.196c19.996.134 29.465.457 30.153 1.028.776.644 1.002 4.233 1.002 15.923 0 14.232-.085 15.153-1.498 16.17-.824.594-1.498 1.444-1.498 1.9s-1.18 1.954-2.622 3.35-2.622 2.932-2.622 3.4-.843 1.504-1.873 2.277-1.873 1.83-1.873 2.352-1.348 2.254-2.997 3.852-2.997 3.224-2.997 3.612-.843 1.497-1.873 2.464-1.88 2.12-1.888 2.564-1.525 2.304-3.37 4.136-3.356 3.646-3.356 4.032-.843 1.482-1.873 2.436-1.873 2.07-1.873 2.483-1.18 1.894-2.622 3.293-2.622 2.866-2.622 3.258-1.18 1.856-2.622 3.253-2.622 2.936-2.622 3.42-1.18 1.888-2.622 3.12-2.622 2.632-2.622 3.113-1.18 1.957-2.622 3.28-2.622 2.765-2.622 3.206-1 1.77-2.247 2.953-2.247 2.575-2.247 3.092-.617 1.38-1.37 1.92-2 2-2.8 3.224-2.186 2.93-3.124 3.767-1.705 1.915-1.705 2.397-1.18 2.02-2.622 3.42-2.622 2.866-2.622 3.258-1.18 1.856-2.622 3.253-2.622 2.855-2.622 3.24-1.18 1.813-2.622 3.172-2.622 2.76-2.622 3.114-1.18 1.893-2.622 3.42-2.622 3.048-2.622 3.378-1.18 1.743-2.622 3.14-2.622 2.916-2.622 3.376-1 1.804-2.247 2.988-2.247 2.454-2.247 2.823-1.18 1.816-2.622 3.216-2.622 3.225-2.622 4.055c0 1.497.376 1.5 42.16 1.5 46.957 0 43.097-.433 45.55 5.107.58 1.3 1.3 2.38 1.62 2.38a.44.44 0 0 1 .443.562c-.285 1.303 1.1 4.603 2.075 4.98.587.225 1.4 1.176 1.803 2.113 1.057 2.446 2.42 4.497 3.9 5.887.714.665 1.13 1.376.928 1.578s1.657 2.464 4.134 5.025c4.68 4.84 4.804 5.114 4.035 8.96l-.468 2.34h-64.24v18.942c0 13.734-.247 19.2-.9 19.84s-5.807.896-18.54.9c-17.25-.008-17.672-.046-18.953-1.65zm163.5-35.026c0-.412-1.33-.75-2.952-.75s-3.136-.297-3.36-.66-2.267-.893-4.54-1.177-4.13-.828-4.13-1.2-.664-.695-1.475-.695-2.676-.674-4.143-1.497-3.028-1.497-3.468-1.497c-1.374 0-6.24-2.5-6.87-3.516-.33-.537-1.182-.976-1.895-.976s-1.782-.674-2.376-1.497-1.452-1.497-1.908-1.497-1.62-.842-2.587-1.872-2.103-1.872-2.523-1.872c-.906 0-8.714-7.92-8.714-8.838 0-.35-.843-1.425-1.873-2.392s-1.873-2.13-1.873-2.586-.674-1.313-1.498-1.907-1.498-1.34-1.498-1.658c0-1.155-2.616-6.578-3.173-6.578-.315 0-.572-.6-.572-1.354s-.495-2.008-1.1-2.808-1.1-2.2-1.124-3.138-.36-1.685-.773-1.685-.75-.775-.75-1.722-.335-2.057-.744-2.466-.963-2.835-1.23-5.4-.775-4.647-1.128-4.647c-.85 0-.834-31.987.016-32.513.363-.224.897-2.94 1.188-6.034s.836-5.626 1.213-5.626.685-.842.685-1.872.337-1.872.75-1.872.75-.822.75-1.828.3-2.02.692-2.255.913-1.434 1.183-2.665.723-2.237 1.005-2.237c.558 0 3.114-5.535 3.114-6.743a.75.75 0 0 1 .749-.744c.412 0 .75-.54.75-1.202s.843-1.865 1.873-2.675 1.873-1.894 1.873-2.4.843-1.73 1.873-2.697 1.873-2.146 1.873-2.62c0-1.028 3.155-4.118 4.204-4.118.405 0 2.053-1.348 3.662-2.995s3.3-2.995 3.732-2.995 1.292-.674 1.886-1.497 1.663-1.497 2.376-1.497 1.565-.44 1.895-.975c.566-.92 8.594-5.015 9.834-5.015 1.034 0 4.612-1.857 4.618-2.396.003-.3 2.03-.753 4.5-1.033s4.495-.802 4.495-1.16 1.686-.652 3.746-.652 3.746-.337 3.746-.75c0-1.012 24.47-1.012 25.096 0 .255.412 2.13.75 4.164.75s3.702.3 3.702.644 1.744.85 3.876 1.103 4.222.805 4.645 1.227 1.544.77 2.492.77 1.723.257 1.723.572c0 .6 5.468 3.17 6.747 3.17.4 0 .744.257.744.572s1.264 1.158 2.8 1.875c4.03 1.87 5.5 2.858 8.277 5.6 1.36 1.338 2.707 2.44 2.997 2.445.924.02 5.002 4.028 6.465 6.352.778 1.235 1.866 2.515 2.42 2.845s1.006 1.024 1.006 1.544.984 1.888 2.187 3.04 2.4 2.98 2.68 4.063.724 2.14 1.005 2.35c.92.7 4.615 8.6 4.615 9.894 0 .7.337 1.463.75 1.718s.75 1.285.75 2.3.308 1.828.685 1.828.922 2.527 1.212 5.615.824 5.615 1.188 5.615.66 6.233.66 13.85c0 8.735-.277 13.85-.75 13.85-.412 0-.75.505-.75 1.123 0 1-6.95 1.123-58.067 1.123h-58.067l.48 3.182c.264 1.75.773 3.502 1.133 3.893s.653 1.486.653 2.433.3 1.722.7 1.722.915 1.027 1.2 2.282 1.145 2.684 1.932 3.175 1.43 1.344 1.43 1.895c0 1.14 5.555 6.874 6.66 6.874.4 0 1.17.42 1.715.936 2.066 1.953 7.847 4.433 11.28 4.84 1.963.233 3.57.713 3.57 1.067 0 .883 22.174.82 23.795-.068.715-.4 3.24-.92 5.608-1.177s4.308-.778 4.308-1.16.674-.695 1.498-.695 1.498-.257 1.498-.572c0-.553 5.423-3.17 6.57-3.17.312 0 1.2-.842 1.973-1.872s1.795-1.872 2.27-1.872 2.352-1.516 4.17-3.37c1.88-1.914 4-3.37 4.912-3.37 1.535 0 8.572 6.33 8.572 7.7 0 .857 5.746 6.517 6.616 6.517.375 0 2 1.347 3.588 2.994s3.27 2.994 3.712 2.995c1.227.001 4.064 3.3 4.064 4.728 0 .694-.337 1.262-.75 1.262s-.75.45-.75.998c0 1.14-5.123 6.5-6.217 6.5-.398 0-1.8 1.095-3.097 2.433-2.497 2.56-4.294 3.87-6.824 4.977-.84.368-1.95 1.176-2.465 1.796s-1.846 1.356-2.958 1.635-2.194.75-2.404 1.047c-.485.685-8.793 4.583-9.767 4.583-.4 0-.73.337-.73.75s-1.18.75-2.622.75-2.622.313-2.622.695-1.86.927-4.13 1.2-4.314.813-4.54 1.177-1.737.66-3.36.66-2.952.337-2.952.75c0 .476-5.993.75-16.48.75s-16.48-.272-16.48-.75zm50.192-105.94c0-1.44-.294-2.62-.653-2.62s-.856-1.267-1.104-2.815c-.25-1.57-1.123-3.3-1.97-3.9-.835-.6-1.52-1.44-1.522-1.864-.004-1.073-9.252-10.13-10.343-10.13-.5 0-.9-.337-.9-.75s-.674-.75-1.498-.75-1.498-.322-1.498-.715-1.264-.917-2.8-1.164-3.395-.768-4.1-1.157c-1.626-.885-19.3-.943-19.3-.063 0 .355-1.66.84-3.7 1.08-3.935.466-5.96 1.383-9.002 4.077-1.046.927-2.172 1.685-2.5 1.685-.838 0-6.533 5.72-6.533 6.563 0 .38-.655 1.284-1.456 2.008s-1.67 2.293-1.932 3.485-.787 2.168-1.166 2.168-.7.775-.7 1.722-.382 2.104-.85 2.57-.646 1.376-.398 2.02c.4 1.043 4.523 1.173 37.182 1.173h36.73zm97.388 105.94c0-.412-1.517-.75-3.37-.75s-3.37-.294-3.37-.653-1.348-.87-2.997-1.132-2.997-.732-2.997-1.042-1.264-1.15-2.8-1.866c-3.98-1.846-5.138-2.687-9.516-6.9-2.134-2.06-4.36-4.838-4.95-6.177s-1.293-2.433-1.566-2.433-.728-1.684-1-3.743-.82-3.93-1.194-4.162-.68-1.747-.68-3.37-.337-2.95-.75-2.95c-.495 0-.75-31.467-.75-92.905v-92.905l1.686-1.405c1.546-1.3 3.202-1.407 20.04-1.425l18.354-.02 1.3 2.302c1.228 2.156 1.3 7.88 1.3 90.53v88.227l2.305 2.304c2.26 2.26 2.446 2.304 9.66 2.304 7.988 0 8.263.15 8.263 4.5 0 1.177.337 2.35.75 2.603s.75 1.622.75 3.04.337 2.576.75 2.576.75 1.18.75 2.62.294 2.62.653 2.62.87 1.348 1.133 2.995.812 2.995 1.22 2.995.74.674.74 1.497.3 1.497.668 1.497c1 0 1.63 3.303 1.1 5.903-.42 2.105-.78 2.348-4.116 2.8-2 .267-3.655.778-3.655 1.137s-1.517.652-3.37.652-3.37.337-3.37.75c0 .463-3.995.75-10.488.75s-10.488-.285-10.488-.75zm83.154 0c0-.412-1-.75-2.203-.75s-2.384-.293-2.605-.65-1.758-.867-3.415-1.132-3.013-.814-3.013-1.22-.674-.74-1.498-.74-1.498-.298-1.498-.66c0-.552-1.848-1.442-3.858-1.858-1.242-.257-9.475-9.354-10.424-11.518-.587-1.338-1.292-2.433-1.567-2.433s-.728-1.346-1.006-3-.813-3.18-1.2-3.413-.684-1.393-.684-2.58-.337-2.366-.75-2.62c-.493-.305-.75-32.598-.75-94.446V118.33l1.686-1.405c1.547-1.3 3.208-1.407 20.147-1.43 16.158-.02 18.518.123 18.916 1.16.25.65.455 40.218.455 87.927l.75 87.205c.412.255.75 1.428.75 2.607 0 1.396.804 2.948 2.305 4.448 2.264 2.263 2.437 2.304 9.74 2.304 4.422 0 7.434.3 7.434.744 0 1.278 2.572 6.743 3.173 6.743.315 0 .572.495.572 1.1 0 1.653 3.07 7.2 4.23 7.656.558.214 1.014.98 1.014 1.7s.843 1.945 1.873 2.718 1.873 1.8 1.873 2.26.506 1.273 1.124 1.786c.646.535 1.124 2.168 1.124 3.837 0 2.674-.238 3.008-2.997 4.203-1.648.714-2.997 1.543-2.997 1.844s-1.693.77-3.762 1.045-3.943.8-4.165 1.15-1.73.65-3.354.65-2.952.337-2.952.75c0 .466-4.245.75-11.237.75s-11.237-.283-11.237-.75z"/><path d="M591.853 339.324c0-.412-1.33-.75-2.952-.75s-3.136-.297-3.36-.66-2.267-.893-4.54-1.177-4.13-.828-4.13-1.2-.662-.695-1.472-.695-2.98-.842-4.826-1.872-3.88-1.872-4.52-1.872-1.167-.257-1.167-.572-1.348-1.156-2.997-1.87-2.997-1.635-2.997-2.048-.506-.75-1.124-.75-1.714-.506-2.435-1.125c-5.884-5.047-7.58-6.362-8.2-6.362-.85 0-3.973-3.202-3.973-4.075 0-.53-1.397-2.305-6.366-8.1-.62-.72-1.125-1.816-1.125-2.433s-.338-1.123-.75-1.123-1.336-1.348-2.05-2.995-1.556-2.995-1.87-2.995-.572-.635-.572-1.412-.504-2.377-1.12-3.556-1.12-2.903-1.124-3.83-.342-1.685-.754-1.685-.75-.842-.75-1.872-.308-1.872-.685-1.872-.923-2.532-1.213-5.626-.825-5.8-1.188-6.034c-.863-.533-.862-28.77.001-28.77.364 0 .898-2.527 1.188-5.615s.835-5.615 1.212-5.615.685-.822.685-1.828.308-2.018.684-2.25.924-1.84 1.216-3.572c.476-2.817 1.546-5.528 2.595-6.576.98-.98 2.304-3.936 1.93-4.3-.232-.232.25-.892 1.072-1.467s1.494-1.532 1.494-2.126.337-1.08.75-1.08.75-.5.75-1.1.843-1.93 1.873-2.96 1.873-2.182 1.873-2.56c0-.865 10.578-11.32 12.464-12.32.767-.407 2.07-1.488 2.893-2.403s2.34-1.92 3.37-2.234 2.423-1.05 3.094-1.64c1.64-1.437 6.723-3.994 7.937-3.994.983 0 4.007-1.5 4.7-2.318.206-.245 2.047-.67 4.1-.943s4.05-.83 4.457-1.238 2.36-.74 4.338-.74 3.596-.337 3.596-.75c0-.47 4.87-.75 13.1-.75s13.1.278 13.1.75c0 .412 1.666.75 3.7.75s3.886.297 4.1.66 2.267.893 4.54 1.177 4.13.828 4.13 1.2.662.695 1.472.695 2.98.842 4.826 1.872 3.88 1.872 4.52 1.872 1.167.298 1.167.66.6.86 1.3 1.1c1.8.604 4.048 2.1 5.5 3.665.672.72 1.573 1.3 2.003 1.3 1.04 0 13.652 12.58 13.652 13.615 0 .445.6 1.36 1.3 2.03 1.6 1.5 2.77 3.32 4.48 7.003.717 1.544 1.562 2.808 1.876 2.808s.572.335.572.744c0 1.28 2.572 6.743 3.173 6.743.315 0 .572.822.572 1.828s.322 2.027.716 2.27.54.903.324 1.466-.032 1.246.407 1.518.8 2 .8 3.82.337 3.325.75 3.325.75 1.685.75 3.743.337 3.743.75 3.743c.46 0 .75 3.62.75 9.36s-.3 9.36-.75 9.36c-.412 0-.75 1.28-.75 2.845s-.405 3.25-.9 3.743c-.684.683-14.683.898-58.433.898H567.88v2.995c0 1.647.337 2.995.75 2.995s.75.842.75 1.872.337 1.872.75 1.872.75.37.75.823c0 3.536 9.366 14.715 13.84 16.52 1.246.503 2.434 1.102 2.64 1.33 1.183 1.317 4.308 2.37 8.25 2.782 2.467.258 4.485.757 4.485 1.1 0 .844 20.767.836 21.3-.008.22-.357 2.125-.878 4.23-1.158s4.388-.807 5.074-1.173 2.34-1.106 3.68-1.646 2.435-1.208 2.435-1.487.966-.718 2.146-.978 2.852-1.128 3.714-1.93 1.848-1.46 2.2-1.46 2.282-1.685 4.3-3.743c2.942-2.985 4.188-3.743 6.152-3.743 1.5 0 2.463.375 2.463.95 0 1.22 15.832 17.02 17.055 17.02.508 0 .924.33.924.734s.843.946 1.873 1.204c1.172.294 1.873 1 1.873 1.886 0 .78.337 1.416.75 1.416s.75.823.75 1.83c0 1.25-1.33 3.1-4.196 5.802-2.308 2.185-4.77 4.2-5.472 4.456s-2.1 1.52-3.1 2.787-2.724 2.5-3.815 2.74-2.558 1.072-3.262 1.85-2.255 1.627-3.45 1.9-2.17.786-2.17 1.165-.674.7-1.498.7-1.5.253-1.5.562-1.603 1.2-3.558 1.958c-6.677 2.623-7.676 3.087-7.676 3.565 0 .263-2.188.713-4.862 1s-5.054.83-5.288 1.2-1.755.7-3.38.7-2.952.337-2.952.75c0 .476-5.993.75-16.48.75s-16.48-.272-16.48-.75zM642.045 233c0-1.647-.337-2.995-.75-2.995s-.75-.495-.75-1.1c0-1.456-2.8-6.798-4.17-7.925-.6-.5-1.075-1.235-1.075-1.654 0-1.375-5.666-6.097-8.428-7.024-.72-.242-1.3-.738-1.3-1.1s-.674-.66-1.498-.66-1.498-.333-1.498-.74-1.348-.955-2.997-1.22-2.997-.773-2.997-1.132-4.55-.653-10.113-.653-10.113.293-10.113.65-1.6.83-3.534 1.05-3.657.768-3.808 1.22-.92.822-1.7.822-1.436.337-1.436.75-.447.75-.993.75-1.785.842-2.753 1.872-2.034 1.872-2.37 1.872c-1.06 0-3.624 2.536-3.624 3.584 0 .553-.987 1.835-2.192 2.85s-2.412 2.845-2.682 4.07-.8 2.226-1.18 2.226-.7.775-.7 1.722-.382 2.104-.85 2.57-.646 1.376-.398 2.02c.4 1.043 4.523 1.173 37.182 1.173h36.73zm61.733-60.916l-4.058-.04-.084-.45c-.046-.247-.187-.497-.312-.556s-.936-.14-1.8-.178l-1.572-.07-.15-.46c-.192-.592-.607-.793-1.637-.796-.8-.002-.83-.016-.912-.366-.12-.506-.432-.827-.804-.827-.185 0-.343-.096-.384-.232-.18-.602-.428-.904-.854-1.042-.327-.106-.472-.24-.504-.463-.062-.428-.37-.746-.82-.845-.274-.06-.397-.184-.457-.457-.097-.442-.398-.732-.878-.846-.24-.057-.372-.195-.427-.448-.12-.55-.273-.714-.765-.814l-.448-.1-.04-.984c-.044-1.1-.2-1.377-.828-1.502l-.4-.078v-1.373c0-1.75-.122-2.1-.804-2.378l-.525-.206.072-6.415.425-.144c.72-.245.764-.356.814-2.125l.046-1.637.35-.088c.677-.17.814-.42.814-1.48 0-.67.052-1 .165-1.02.876-.233.963-.294 1.08-.763.1-.4.2-.503.617-.628.6-.176.787-.6.787-1.684 0-.683.012-.708.43-.816.404-.104.482-.2.898-1.087.07-.147.264-.187.752-.155.917.06 1.576-.233 1.7-.753.063-.287.226-.47.568-.64a1.12 1.12 0 0 0 .63-.7l.152-.463 1.644-.066c.904-.036 1.718-.114 1.807-.172s.213-.297.273-.53l.1-.424 10.5-.072.086.4c.142.646.37.733 2.108.805l1.603.066.148.463c.2.596.582.8 1.604.792.8.002.83.016.912.366.12.498.392.783.836.872.27.054.4.178.467.445.127.508.45.834.825.834.185 0 .343.095.384.232.178.595.428.904.84 1.04a.79.79 0 0 1 .591.596c.1.343.255.486.6.6l.464.15.084 1.02c.1 1.106.173 1.255.815 1.472.414.14.426.167.5 1.072.074 1.036.22 1.297.798 1.412l.394.08v5.96l-.25 5.96c-.138 0-.4.114-.563.253-.262.212-.324.4-.38 1.213-.066.957-.068.96-.524 1.114-.565.2-.786.655-.794 1.672-.004.713-.024.748-.387.82-.495.1-.8.423-.8.83 0 .195-.093.353-.232.395-.6.18-.905.428-1.042.848-.104.32-.254.482-.505.55-.502.134-.693.324-.784.778-.075.376-.1.394-.777.402-1.065.012-1.576.238-1.756.778a.82.82 0 0 1-.598.604c-.463.156-.574.282-.8.893l-.13.364-1.493.002c-.82.001-1.572.052-1.667.112s-.254.343-.35.627c-.17.492-.203.516-.753.52-.317.003-2.402-.012-4.634-.036zm3.065-2.986c.187-.094.396-.367.48-.627l.15-.46 1.683-.066c1.468-.058 1.707-.1 1.87-.323a1.09 1.09 0 0 0 .187-.543c0-.262.086-.293 1.006-.363 1.103-.083 1.433-.27 1.554-.872.058-.3.186-.4.607-.527.463-.138.552-.23.675-.685.115-.426.2-.525.458-.525.4 0 .724-.32.822-.8.06-.305.177-.407.585-.517.44-.118.528-.208.648-.652.113-.417.214-.532.534-.602.62-.136.792-.5.794-1.716.002-1.533.1-2.055.42-2.055.14 0 .402-.15.584-.33l.33-.33-.04-3.766-.192-3.92c-.084-.084-.352-.194-.596-.243l-.443-.1-.066-1.663c-.072-1.805-.154-2.025-.8-2.17-.298-.066-.412-.18-.47-.47-.1-.446-.283-.634-.798-.77-.36-.095-.375-.137-.446-1.118-.095-1.32-.216-1.443-1.53-1.537l-1.012-.073-.15-.463a.79.79 0 0 0-.606-.611c-.337-.1-.495-.26-.602-.577-.215-.638-.523-.797-1.544-.797h-.897l-.14-.525c-.215-.798-.396-.822-5.84-.774-5.14.046-5.057.032-5.26.82-.103.4-.134.415-.893.448-1.25.054-1.37.1-1.65.764-.16.37-.338.6-.48.6-.33 0-.7.393-.7.732 0 .47-.317.636-1.037.54-.848-.112-1.455.104-1.57.56-.05.193-.093.708-.1 1.144-.008.767-.024.798-.42.927-.54.175-.823.42-.873.76-.024.175-.197.33-.466.42-.66.223-.762.408-.834 1.498-.066 1.002-.07 1.013-.48 1.118-.788.203-.778.143-.778 4.88 0 3.988.02 4.354.24 4.597.13.145.414.3.63.34l.4.078.002 1.492c.002 1.706.124 2.063.777 2.282.337.113.485.263.596.607.106.327.26.494.545.6.572.2.728.316.728.583 0 .304.375.638.78.695.32.046.394.136.662.813.088.222.326.446.592.557.325.136.467.293.525.582.1.505.435.678 1.518.786.848.085.874.098.984.522.14.54.494.7 1.638.7.57 0 .873.055.907.165.028.1.084.32.125.508s.2.408.375.487c.447.215 5.897.2 6.326-.008zm-9.668-15.71V142.4l5.694-.02 5.86-.032c.1-.008.228.18.305.417.213.66.388.756 1.5.827l1.02.066.04 1c.044 1.095.206 1.4.838 1.53l.386.085-.072 5.303-.463.15a.79.79 0 0 0-.612.613c-.113.352-.256.5-.596.6-.415.137-.662.436-.834 1-.056.187-.222.232-.862.232-1.028 0-1.434.2-1.588.746-.216.783.1 1.414.774 1.55.362.072.377.106.427.998.058 1.02.294 1.428.87 1.498.25.032.372.158.483.504.123.38.248.495.712.64l.563.178v.955c0 1.07.138 1.356.73 1.513.375.1.4.147.437.858l.04.752h-2.8l-.08-.394c-.1-.456-.282-.644-.792-.78-.247-.066-.397-.217-.464-.468-.135-.503-.492-.872-.845-.872-.247 0-.306-.094-.377-.614a9.27 9.27 0 0 1-.084-.993c0-.465-.418-.908-.856-.908-.268 0-.35-.094-.467-.525-.12-.45-.214-.547-.654-.68l-.512-.153-.05-1c-.072-1.427-.174-1.5-2.384-1.5-.944 0-1.828.06-1.966.134-.444.238-.525.997-.526 4.93v3.805h-2.78zm9.84-1.062c.187-.147.36-.428.382-.624.032-.288.13-.374.5-.45.488-.1.8-.413.8-.803 0-.156.182-.313.52-.45 1.1-.44.993-1.95-.156-2.223-.226-.054-.364-.174-.364-.32 0-.383-.382-.8-.827-.925-.316-.082-.444-.208-.523-.515-.197-.758-.258-.77-3.632-.77-4.03 0-3.676-.3-3.736 3.3-.05 2.953.06 3.726.548 3.923.16.064 1.6.12 3.22.126 2.746.008 2.95-.008 3.27-.26z"/></g></svg>